<?xml version="1.0" standalone="no"?><!DOCTYPE svg PUBLIC "-//W3C//DTD SVG 1.1//EN" "http://www.w3.org/Graphics/SVG/1.1/DTD/svg11.dtd"><svg t="1539571875394" class="icon" style="" viewBox="0 0 1024 1024" version="1.1" xmlns="http://www.w3.org/2000/svg" p-id="1847" xmlns:xlink="http://www.w3.org/1999/xlink" width="16" height="16"><defs><style type="text/css"></style></defs><path d="M216.248447 457.937888L337.093168 387.975155c6.360248-6.360248 12.720497-19.080745 0-31.801242l-254.409938-178.086956L222.608696 69.962733l337.093167 108.124224s6.360248 6.360248 203.527951-146.285715c31.801242-19.080745 57.242236-25.440994 89.043478-31.801242 44.521739 0 139.925466 25.440994 152.645963 50.881988 12.720497 19.080745 6.360248 57.242236-25.440994 82.683229 0 0-432.496894 311.652174-667.826087 477.018634-12.720497 19.080745-31.801242 25.440994-44.521739 31.801242-31.801242 0-50.881988 0-82.68323 6.360249-12.720497 0-31.801242 6.360248-44.521739-12.720497L0 496.099379l57.242236-69.962733 159.006211 31.801242z" fill="#1296db" p-id="1848"></path><path d="M63.602484 1024c-19.080745 0-31.801242-19.080745-31.801242-44.521739s12.720497-44.521739 31.801242-44.521739h731.428572c19.080745 0 31.801242 19.080745 31.801242 44.521739s-12.720497 44.521739-31.801242 44.521739H63.602484z" fill="#1296db" p-id="1849"></path></svg>