<?xml version="1.0" standalone="no"?><!DOCTYPE svg PUBLIC "-//W3C//DTD SVG 1.1//EN" "http://www.w3.org/Graphics/SVG/1.1/DTD/svg11.dtd"><svg t="1539572518932" class="icon" style="" viewBox="0 0 1024 1024" version="1.1" xmlns="http://www.w3.org/2000/svg" p-id="10706" xmlns:xlink="http://www.w3.org/1999/xlink" width="16" height="16"><defs><style type="text/css"></style></defs><path d="M986.976256 653.027328h-56.557568a25.81504 25.81504 0 0 0-10.928128 2.413568l-83.617792-167.363584c-5.931008-10.691584-13.81888-18.731008-22.37952-24.783872-7.14752 31.880192-22.784 59.334656-31.479808 72.8832 4.671488 6.10816 6.095872 11.336704 6.095872 11.336704L856.8832 693.369856l-465.417216-1.312768 44.167168-75.1104-97.355776 37.050368-66.356224 77.980672h28.003328c-3.173376 21.292032-3.306496 45.85984-3.306496 45.85984l0.037888 178.08384c-2.311168 19.985408 14.57664 25.075712 14.57664 25.075712l81.670144 1.041408c22.87616-1.37728 20.842496-23.08608 20.842496-23.08608l0.852992-46.690304 422.776832 1.283072 1.933312 49.805312c3.514368 16.46592 16.713728 18.688 16.713728 18.688l77.273088-0.137216c21.731328-2.03264 20.159488-26.335232 20.159488-26.335232l-0.515072-201.184256c-0.208896-7.291904-1.333248-14.997504-2.873344-22.40512h36.91008c14.19776 0 25.709568-11.40224 25.709568-25.467904v-28.012544c0-14.066688-11.511808-25.468928-25.709568-25.468928zM415.054848 846.32064c-25.409536 6.903808-51.610624-8.076288-58.5216-33.462272-6.910976-25.38496 8.085504-51.561472 33.497088-58.464256 25.408512-6.903808 51.611648 8.076288 58.518528 33.461248 6.913024 25.387008-8.08448 51.562496-33.494016 58.46528z m442.701824-0.260096c-25.908224 7.037952-52.62336-8.23808-59.669504-34.117632-7.046144-25.884672 8.247296-52.57216 34.153472-59.611136 25.908224-7.04 52.624384 8.236032 59.669504 34.118656 7.047168 25.884672-8.244224 52.570112-34.153472 59.610112zM577.062912 544.323584s83.359744 56.394752 177.47456-2.684928c0 0 77.981696-93.991936 24.201216-169.18528 0 0 83.359744-80.5632 26.891264-174.55616 0 0-16.135168-77.878272-166.720512-75.19232 0 0-24.201216-88.620032-153.274368-67.136512 0 0-77.980672 24.169472-80.669696 115.475456 0 0-72.603648-8.055808-112.939008 77.878272 0 0-21.515264 93.991936 45.712384 131.588096l-43.025408 193.353728L31.19104 823.612416l77.979648 69.823488 212.434944-249.74848 255.45728-99.36384z m-131.7632-48.336896s67.226624 42.966016 88.737792 42.966016l-142.518272 21.48352 53.78048-64.449536z m-88.736768-85.936128s16.13312 48.338944 43.024384 56.394752l-43.024384 42.968064V410.05056z" fill="#0e932e" p-id="10707"></path></svg>