<?xml version="1.0" standalone="no"?><!DOCTYPE svg PUBLIC "-//W3C//DTD SVG 1.1//EN" "http://www.w3.org/Graphics/SVG/1.1/DTD/svg11.dtd"><svg t="1539572174393" class="icon" style="" viewBox="0 0 1024 1024" version="1.1" xmlns="http://www.w3.org/2000/svg" p-id="4020" xmlns:xlink="http://www.w3.org/1999/xlink" width="16" height="16"><defs><style type="text/css"></style></defs><path d="M544.989636 668.146681v51.189344a221.976774 221.976774 0 0 0 75.867638-21.396379c-0.213111-1.065557-0.639334-2.045869-0.639334-3.154048 0-9.845744 7.970364-17.816108 17.816108-17.816108 4.560583 0 8.65232 1.832758 11.806368 4.68845 6.94743-4.816316 13.085036-10.5277 19.435755-16.025973l-36.101062-36.271551a171.72512 171.72512 0 0 1-88.185473 38.786265zM351.655026 519.735942H300.423059a223.170198 223.170198 0 0 0 199.600084 199.600083v-51.189344a172.321831 172.321831 0 0 1-148.368117-148.410739z m7.160541 111.883454a22.845536 22.845536 0 1 1 0-45.691071 22.845536 22.845536 0 0 1 0 45.691071zM831.326035 474.769448h70.284121a379.679168 379.679168 0 0 0-356.663142-356.663142V188.390427c153.013944 11.08179 275.339854 133.4077 286.379021 286.379021z" fill="#27cbe5" p-id="4021"></path><path d="M500.023143 657.704225v-36.058439a126.545515 126.545515 0 0 1-101.867222-101.909844h-36.058439a162.007242 162.007242 0 0 0 137.925661 137.968283zM500.023143 372.859605v-36.015817a161.96462 161.96462 0 0 0-137.925661 137.968283h36.058439a126.588137 126.588137 0 0 1 101.867222-101.952466zM654.187888 608.39026l36.143683 36.271551a222.147263 222.147263 0 0 0 54.30077-124.883247h-51.231966a171.469386 171.469386 0 0 1-39.212487 88.611696zM286.016733 519.735942h-53.704059a291.365827 291.365827 0 0 0 267.710469 267.667846v-53.704059a237.49128 237.49128 0 0 1-214.00641-213.963787zM655.722289 695.297066a17.730864 17.730864 0 0 1-17.688241 17.262018 17.048907 17.048907 0 0 1-8.950677-2.770447 235.360166 235.360166 0 0 1-84.051113 23.953715v53.704058a289.831426 289.831426 0 0 0 172.023476-73.907014l-37.592841-37.720707c-7.757253 6.734318-15.258772 13.72437-23.740604 19.478377z" fill="#27cbe5" p-id="4022"></path><path d="M700.475671 654.848533l37.592841 37.720707a289.490447 289.490447 0 0 0 74.631592-172.790676h-53.704058a236.55359 236.55359 0 0 1-58.520375 135.069969zM300.423059 474.769448h51.231967a172.364454 172.364454 0 0 1 148.368117-148.410738v-51.146722a223.127575 223.127575 0 0 0-199.600084 199.55746zM693.400375 474.769448h51.231966a223.170198 223.170198 0 0 0-199.600083-199.600083v51.189345a172.407076 172.407076 0 0 1 148.368117 148.410738z" fill="#27cbe5" p-id="4023"></path><path d="M500.023143 260.805661v-53.704059a291.365827 291.365827 0 0 0-267.710469 267.667846h53.704059a237.533902 237.533902 0 0 1 214.00641-213.963787zM544.989636 207.101602v53.704059a235.999501 235.999501 0 0 1 133.066722 56.858106c-0.085245-0.724579-0.426223-1.363913-0.426223-2.131114a17.816108 17.816108 0 1 1 17.816108 17.773486l-0.298355-0.042622a237.10768 237.10768 0 0 1 63.848158 141.548554h53.704058a291.40845 291.40845 0 0 0-267.710468-267.710469zM544.989636 806.114964v70.241498a377.931655 377.931655 0 0 0 234.891321-99.77873l-49.697565-49.868055a307.94589 307.94589 0 0 1-185.193756 79.405287zM646.89948 474.769448h36.058439a162.092487 162.092487 0 0 0-137.968283-137.968283v36.05844a126.63076 126.63076 0 0 1 101.909844 101.909843z" fill="#27cbe5" p-id="4024"></path><path d="M639.270094 474.769448a119.171863 119.171863 0 0 0-94.280458-94.280457v94.280457h94.280458zM500.023143 380.531613a119.086618 119.086618 0 0 0-94.237836 94.280458h94.237836V380.531613zM615.998335 570.030219a118.063684 118.063684 0 0 0 23.271759-50.294277h-73.352924l50.081165 50.294277zM831.326035 519.735942a308.414735 308.414735 0 0 1-80.129864 186.046202l49.697565 49.910676a378.272633 378.272633 0 0 0 100.71642-235.914256H831.326035zM405.785307 519.735942a119.171863 119.171863 0 0 0 94.237836 94.280458v-94.280458H405.785307zM500.023143 188.390427V118.148928a379.593923 379.593923 0 0 0-356.620521 356.62052h70.284121a310.034381 310.034381 0 0 1 286.3364-286.379021zM621.368741 575.443247l25.445494 25.530738a161.112175 161.112175 0 0 0 36.101062-81.238043h-36.05844c-3.75076 20.884912-12.786681 39.723954-25.488116 55.707305zM544.989636 621.645786v36.058439a160.685952 160.685952 0 0 0 80.769199-35.760083l-25.445495-25.530739a125.266847 125.266847 0 0 1-55.323704 25.232383zM213.686743 519.735942H143.402622a379.636545 379.636545 0 0 0 356.663143 356.62052v-70.241498a309.991759 309.991759 0 0 1-286.379022-286.379022zM544.989636 540.876587v73.139813a117.935817 117.935817 0 0 0 49.995921-22.973403l-49.995921-50.16641z" fill="#27cbe5" p-id="4025"></path></svg>