<?xml version="1.0" standalone="no"?><!DOCTYPE svg PUBLIC "-//W3C//DTD SVG 1.1//EN" "http://www.w3.org/Graphics/SVG/1.1/DTD/svg11.dtd"><svg t="1539572159414" class="icon" style="" viewBox="0 0 1024 1024" version="1.1" xmlns="http://www.w3.org/2000/svg" p-id="3773" xmlns:xlink="http://www.w3.org/1999/xlink" width="16" height="16"><defs><style type="text/css"></style></defs><path d="M540.033 672.896c-81.798-12.834-75.792-58.302-76.447-61.432 0.167-7.943 0.372-44.469 0.372-44.469s47.002-32.457 61.715-76.535c23.145-15.377 33.533-17.529 37.367-35.245 0 0 7.807-66.988-17.06-66.988 0 0-10.369 1.761-7.043-13.939s0.234-63.065-1.409-80.506c-1.663-17.441 3.17-67.281-31.625-74.265-23.761-4.656-26.529 2.416-38.13 0.665-11.602-1.741-25.414-38.737-46.964-38.737l-44.743 9.625c-21.55 0-18.233 6.965-29.835 8.716-11.602 1.741 2.348-1.751-32.457 5.233s-47.101 54.056-48.754 71.497c-1.663 17.441-1.682 68.132-0.577 94.279 3.316 15.71-10.251 15.71-10.251 15.71-20.855-1.418-11.484 66.968-11.484 66.968 3.003 16.845-1.076 25.248 29.806 38.296 14.712 44.098 64.708 66.361 64.708 66.361s1.858 28.251 2.445 48.402c-3.14-1.644 6.916 51.453-89.007 66.361-95.933 14.888-103.308 47.579-121.385 65.774-18.087 18.214-16.718 103.885-16.718 103.885l578.1 0c0 0-1.977-85.671-20.054-103.885C652.526 720.475 635.956 687.783 540.033 672.896zM912.533 841.851c0 0-3.013-60.688-16.864-74.637-13.871-13.949-26.567-39.03-100.09-50.417-59.357-8.94-67.261-51.023-67.77-53.41 0.137-6.104 1.135-31.889 1.135-31.889s39.891-20.719 51.16-54.506c17.744-11.777 18.605-13.44 21.54-27.019 0 0 1.271-51.316-17.784-51.316 0 0-7.943 1.331-5.399-10.692 1.761-17.823 0.528-50.876-0.764-64.239-1.252-13.362 3.62-51.571-23.046-56.912-18.215-3.561-9.724 1.849-18.625 0.508-8.883-1.33-19.467-27.644-35.979-27.644l-34.296 7.865c-16.512 0-13.969 5.351-22.851 6.681-8.902 1.34 6.495-1.33-20.171 4.021-26.666 5.341-30.188 41.417-31.479 54.78-1.252 13.362-1.604 52.207-0.744 72.26 2.524 12.022-12.247 12.022-12.247 12.022-16.003-1.066-11.953 51.317-11.953 51.317 2.289 12.912-0.822 19.368 22.831 29.346 11.289 33.808 43.236 50.867 43.236 50.867s-3.286 23.32-2.836 38.737c28.544 17.646 49.986 25.688 67.945 60.59 19.878 58.868 19.291 113.687 19.291 113.687C812.6 841.851 912.533 841.851 912.533 841.851z" p-id="3774" fill="#27cbe5"></path></svg>