<?xml version="1.0" standalone="no"?><!DOCTYPE svg PUBLIC "-//W3C//DTD SVG 1.1//EN" "http://www.w3.org/Graphics/SVG/1.1/DTD/svg11.dtd"><svg t="1539572199739" class="icon" style="" viewBox="0 0 1024 1024" version="1.1" xmlns="http://www.w3.org/2000/svg" p-id="4794" xmlns:xlink="http://www.w3.org/1999/xlink" width="16" height="16"><defs><style type="text/css"></style></defs><path d="M238.3872 203.5712l248.832 53.248c33.792 7.168 65.9456-9.4208 72.0896-37.4784l0.2048-0.6144L188.2112 139.4688l-0.2048 0.6144c-5.9392 27.8528 16.5888 56.32 50.3808 63.488z m0 0M457.9328 692.8384c5.9392-27.8528-16.5888-56.5248-50.5856-63.6928l-248.6272-53.248c-33.792-7.3728-66.1504 9.4208-72.0896 37.4784v0.4096l371.3024 79.4624v-0.4096z m0 0M487.2192 354.7136l-273.8176-58.7776L176.128 469.6064 450.1504 528.384l37.0688-173.6704z m0 0M505.856 267.8784l-273.8176-58.5728-5.7344 27.2384 273.8176 58.5728 5.7344-27.2384z m0 0M488.2432 338.7392l-273.8176-58.5728 5.9392-27.2384 273.8176 58.5728-5.9392 27.2384z m0 0M445.2352 544.3584L171.4176 485.5808l-5.9392 27.2384L439.296 571.392l5.9392-27.0336z m0 0" p-id="4795" fill="#d81e06"></path><path d="M433.5616 587.9808L159.5392 529.2032 153.6 556.4416l273.8176 58.5728 6.144-27.0336z m0 0M962.9696 456.704L489.472 377.6512 466.3296 485.376l464.4864 121.6512c41.5744 8.8064 82.5344-17.408 91.3408-59.1872 8.8064-41.3696-17.6128-82.3296-59.1872-91.136z m0 0" p-id="4796" fill="#d81e06"></path><path d="M56.1152 749.3632L2.4576 867.5328h524.288L473.088 749.3632H56.1152z m0 0" p-id="4797" fill="#d81e06"></path></svg>