<?xml version="1.0" standalone="no"?><!DOCTYPE svg PUBLIC "-//W3C//DTD SVG 1.1//EN" "http://www.w3.org/Graphics/SVG/1.1/DTD/svg11.dtd"><svg t="1539571993013" class="icon" style="" viewBox="0 0 1024 1024" version="1.1" xmlns="http://www.w3.org/2000/svg" p-id="2067" xmlns:xlink="http://www.w3.org/1999/xlink" width="16" height="16"><defs><style type="text/css"></style></defs><path d="M510.464 128c-16.896 0-30.72 13.824-30.72 30.208v132.096c0 16.896 13.824 30.208 30.72 30.208s30.72-13.824 30.72-30.208V158.208c0-16.384-13.824-30.208-30.72-30.208zM508.928 415.232c-16.896 0-30.72 13.824-30.72 30.208v132.096c0 16.896 13.824 30.208 30.72 30.208s30.72-13.824 30.72-30.208V445.44c0-16.896-13.824-30.208-30.72-30.208zM508.928 702.464c-16.896 0-30.72 13.824-30.72 30.208V865.28c0 16.896 13.824 30.208 30.72 30.208s30.72-13.824 30.72-30.208v-132.096c0-16.896-13.824-30.72-30.72-30.72zM957.952 856.064L769.024 151.04c-4.608-16.896-21.504-26.624-37.888-22.528-16.384 4.608-26.112 21.504-21.504 38.4l188.928 705.024c4.608 16.896 21.504 26.624 37.888 22.528 16.384-4.608 26.112-22.016 21.504-38.4zM293.376 128.512c-16.384-4.608-33.28 5.632-37.888 22.528L66.56 856.064c-4.608 16.896 5.12 33.792 21.504 38.4 16.384 4.608 33.28-5.632 37.888-22.528L314.88 166.912c4.608-16.896-5.12-33.792-21.504-38.4z" p-id="2068" fill="#27cbe5"></path></svg>