<?xml version="1.0" standalone="no"?><!DOCTYPE svg PUBLIC "-//W3C//DTD SVG 1.1//EN" "http://www.w3.org/Graphics/SVG/1.1/DTD/svg11.dtd"><svg t="1539572080429" class="icon" style="" viewBox="0 0 1024 1024" version="1.1" xmlns="http://www.w3.org/2000/svg" p-id="2742" xmlns:xlink="http://www.w3.org/1999/xlink" width="16" height="16"><defs><style type="text/css"></style></defs><path d="M466.304 0h77.184c158.08 6.016 304.256 97.408 392.32 226.688-20.736 0.64-41.472 0.896-62.208 1.152C761.216 82.176 559.104 11.648 381.824 65.536c-107.008 27.392-193.024 101.76-263.296 183.936-12.544-1.536-25.216-3.2-37.888-4.736 1.536-13.056 1.024-27.648 11.008-37.888C179.2 88.576 318.336 7.68 466.304 0z" fill="#4DC6F3" p-id="2743"></path><path d="M339.072 241.024c115.328-38.784 242.816-38.016 358.272-0.768 36.864 11.648 69.248 39.68 109.824 35.968 72.192 0 144.512-0.128 216.832-0.384V294.4c-16.512 38.272-36.352 74.88-54.4 112.384-64 1.536-128 0.768-192 0.64l-1.92 35.968c57.088 0.128 114.176-0.384 171.264 0.64-19.712 44.032-41.856 86.912-64.384 129.664h-104.96c-1.024 12.16-2.176 24.32-3.2 36.48 28.032 0.896 56.192 1.024 84.224 1.536-12.16 43.392-35.584 82.048-57.216 121.088-53.12 21.504-111.36 32-159.232 65.024-39.168 24.064-79.872 45.44-118.784 69.888-54.272-23.04-102.528-57.344-154.496-84.608-39.168-22.272-85.376-23.424-128.256-34.688-21.504-43.008-44.288-85.376-63.872-129.28 28.416-0.64 56.832-0.896 85.376-0.896-0.256-9.088-0.64-27.136-0.896-36.096-33.536-3.584-67.2-1.536-100.864-0.256-27.136-41.728-47.104-87.296-69.888-131.328 56.704-2.176 113.408-1.28 170.112-1.024 0.128-10.496 0.512-31.232 0.64-41.728-64.128-3.072-129.664 6.528-192.768-4.096C41.472 364.8 32.128 315.52 0 280.192v-0.384c84.992-9.472 170.752 0.128 256-4.864 29.44-6.144 54.656-24.576 83.072-33.92m172.416 93.696c-11.392 32.128-23.68 65.792-46.848 91.392-34.432 6.784-69.632 9.728-104.064 16.64 24.064 24.32 48.512 48 73.344 71.552-1.024 36.736-7.04 73.088-16.256 108.672 37.76-8.704 66.56-40.064 105.472-44.544 32 13.184 60.672 33.28 88.576 53.376-2.944-35.456-4.736-71.424-15.488-105.6 25.216-29.696 55.04-54.784 80.896-83.84-31.872-6.144-64.128-9.6-96.128-14.72-39.808-13.952-29.696-83.328-69.504-92.928z" fill="#4DC6F3" p-id="2744"></path><path d="M0 397.824c4.224-3.456 12.672-10.24 16.768-13.696 16.768 36.352 35.2 73.984 29.696 115.328C36.736 704 183.808 901.504 381.184 954.112c134.784 37.504 287.616 12.672 399.488-72.704 115.712-84.608 189.568-225.792 186.624-369.792-2.048-39.04 13.824-80.128 46.464-103.04 15.488 120.576 2.048 247.552-60.288 353.92C867.328 916.736 696.96 1019.648 520.448 1024h-28.288C248.192 1019.264 17.024 818.304 0 570.88V397.824z" fill="#4DC6F3" p-id="2745"></path></svg>